<?xml version="1.0" encoding="utf-8"?>
<!-- Generator: Adobe Illustrator 22.0.1, SVG Export Plug-In . SVG Version: 6.00 Build 0)  -->
<svg version="1.1"
	 id="svg2989" inkscape:version="0.48.3.1 r9886" sodipodi:docname="heart_empty_font_awesome.svg" xmlns:cc="http://creativecommons.org/ns#" xmlns:dc="http://purl.org/dc/elements/1.1/" xmlns:inkscape="http://www.inkscape.org/namespaces/inkscape" xmlns:rdf="http://www.w3.org/1999/02/22-rdf-syntax-ns#" xmlns:sodipodi="http://sodipodi.sourceforge.net/DTD/sodipodi-0.dtd" xmlns:svg="http://www.w3.org/2000/svg"
	 xmlns="http://www.w3.org/2000/svg" xmlns:xlink="http://www.w3.org/1999/xlink" x="0px" y="0px" viewBox="0 0 260.8 223.6"
	 style="enable-background:new 0 0 260.8 223.6;" xml:space="preserve">
<sodipodi:namedview  bordercolor="#666666" borderopacity="1" gridtolerance="10" guidetolerance="10" id="namedview2995" inkscape:current-layer="svg2989" inkscape:cx="896" inkscape:cy="896" inkscape:pageopacity="0" inkscape:pageshadow="2" inkscape:window-height="480" inkscape:window-maximized="0" inkscape:window-width="640" inkscape:window-x="0" inkscape:window-y="25" inkscape:zoom="0.13169643" objecttolerance="10" pagecolor="#ffffff" showgrid="false">
	</sodipodi:namedview>
<g id="g2991" transform="matrix(1,0,0,-1,22.779661,1328.2373)">
	<path fill="#3a70fb" id="path2993" inkscape:connector-curvature="0" d="M219.4,1260.1c0,7.9-1,14.8-3.1,20.8c-2.1,6-4.8,10.8-8,14.3
		c-3.3,3.5-7.2,6.4-11.9,8.7c-4.7,2.2-9.2,3.7-13.7,4.5c-4.5,0.8-9.2,1.2-14.3,1.2s-10.5-1.2-16.3-3.7c-5.8-2.5-11.2-5.6-16.1-9.3
		c-4.9-3.7-9.1-7.2-12.6-10.5c-3.5-3.3-6.4-6.2-8.7-9c-1.7-2.1-4.1-3.2-7.1-3.2c-3,0-5.4,1.1-7.1,3.2c-2.3,2.7-5.2,5.7-8.7,9
		c-3.5,3.3-7.7,6.7-12.6,10.5s-10.3,6.8-16.1,9.3c-5.8,2.5-11.3,3.7-16.3,3.7s-9.8-0.4-14.3-1.2c-4.5-0.8-9-2.3-13.7-4.5
		c-4.7-2.2-8.6-5.1-11.9-8.7c-3.3-3.5-5.9-8.3-8-14.3s-3.1-13-3.1-20.8c0-16.3,9.1-33.5,27.2-51.7l84.6-81.5l84.4,81.4
		C210.3,1226.5,219.4,1243.8,219.4,1260.1z M238.1,1260.1c0-21.4-11.1-43.3-33.3-65.5l-90.7-87.3c-1.7-1.7-3.9-2.6-6.4-2.6
		s-4.7,0.9-6.4,2.6l-90.8,87.6c-1,0.8-2.3,2-4,3.8c-1.7,1.7-4.4,4.9-8.1,9.5s-7,9.3-9.9,14.2s-5.5,10.7-7.8,17.6
		c-2.3,6.9-3.4,13.6-3.4,20.1c0,21.3,6.2,38,18.5,50.1s29.4,18,51.1,18c6,0,12.2-1,18.4-3.1s12.1-4.9,17.5-8.4s10-6.9,13.9-10
		c3.9-3.1,7.6-6.4,11.1-9.9c3.5,3.5,7.2,6.8,11.1,9.9c3.9,3.1,8.5,6.4,13.9,10c5.4,3.5,11.2,6.4,17.5,8.4s12.4,3.1,18.4,3.1
		c21.7,0,38.8-6,51.1-18C231.9,1298.2,238.1,1281.5,238.1,1260.1z"/>
</g>
</svg>
