<?xml version="1.0" encoding="utf-8"?>
<!-- Svg Vector Icons : http://www.onlinewebfonts.com/icon -->
<!DOCTYPE svg PUBLIC "-//W3C//DTD SVG 1.1//EN" "http://www.w3.org/Graphics/SVG/1.1/DTD/svg11.dtd">
<svg version="1.1" xmlns="http://www.w3.org/2000/svg" xmlns:xlink="http://www.w3.org/1999/xlink" x="0px" y="0px" viewBox="0 0 1000 1000" enable-background="new 0 0 1000 1000" xml:space="preserve">
<metadata> Svg Vector Icons : http://www.onlinewebfonts.com/icon </metadata>
<g><path fill="#D12345" d="M795.4,215c-29.7-26.5-75.5-24-102,5.8c-26.6,29.7-23.9,75.4,5.8,102c61.6,55.1,100.1,134.4,100.1,223.4C799,711.5,665.3,845.2,500,845.5c-165.3-0.3-299-134-299.3-299.3c0-89.4,38.9-169,101-224.1c29.9-26.5,32.7-72.1,6.2-101.9c-26.5-29.9-72.1-32.7-101.9-6.2v0C114.2,295,56.2,414.1,56.2,546.2C56.2,791.3,254.9,990,500,990c245.1,0,443.8-198.7,443.8-443.8C943.9,414.7,886.3,296,795.4,215z"/><path fill="#D12345" d="M501.3,619.4c39.9,0,72.3-32.3,72.3-72.2V82.3c0-39.9-32.4-72.3-72.3-72.3C461.4,10,429,42.4,429,82.3v464.9C429,587.1,461.4,619.4,501.3,619.4z"/></g>
</svg>
